<svg viewBox="0 0 417 519" width="100%" height="100%" xmlns="http://www.w3.org/2000/svg" xmlns:xlink="http://www.w3.org/1999/xlink" overflow="hidden"><defs><clipPath id="clip0"><rect x="302" y="93" width="417" height="519"/></clipPath></defs><g clip-path="url(#clip0)" transform="translate(-302 -93)"><path d="M302 612C302 497.125 395.349 404 510.5 404 625.651 404 719 497.125 719 612L615 612C615 554.562 568.214 508 510.5 508 452.786 508 406 554.562 406 612Z" fill="currentColor" fill-rule="evenodd"/><path d="M362 231.5C362 155.009 428.262 93.0002 510 93.0002 591.738 93.0002 658 155.009 658 231.5 658 307.991 591.738 370 510 370 428.262 370 362 307.991 362 231.5ZM431.25 231.5C431.25 269.746 466.507 300.75 510 300.75 553.492 300.75 588.75 269.746 588.75 231.5 588.75 193.254 553.492 162.25 510 162.25 466.507 162.25 431.25 193.254 431.25 231.5Z" fill="currentColor" fill-rule="evenodd"/></g></svg>